<svg width="158" height="51" viewBox="0 0 158 51" fill="none" xmlns="http://www.w3.org/2000/svg">
<path d="M81.8319 16.9253L72.9037 28.3494L63.9756 16.9253H62.5676V38.4295H66.8877V27.1654L72.1997 33.8215H73.6078L78.9198 27.1654V38.4295H83.2399V16.9253H81.8319Z" fill="#1E1E1E"/>
<path d="M102.215 31.9654C102.407 31.1654 102.503 30.3654 102.503 29.5974C102.503 25.4694 99.4311 22.2373 95.047 22.2373C90.4709 22.1413 86.6629 25.9494 86.7589 30.5254C86.6629 35.1015 90.535 38.9095 95.431 38.8135C97.767 38.8135 99.8791 38.0135 101.767 36.4455L99.9751 33.5015C98.599 34.5575 97.127 35.1015 95.559 35.1015C93.255 35.1015 91.623 33.9815 91.111 31.9654H102.215ZM91.111 28.9254C91.591 26.9734 93.063 25.7254 94.887 25.7254C96.775 25.7254 98.279 26.9734 98.311 28.9254H91.111Z" fill="#1E1E1E"/>
<path d="M117.394 14.4292V24.1254C116.242 22.8773 114.674 22.2373 112.658 22.2373C108.242 22.2373 104.978 25.7574 104.978 30.5254C104.978 35.2935 108.242 38.8135 112.658 38.8135C114.834 38.8135 116.69 37.9815 117.746 36.4775V38.4295H121.714V14.4292H117.394ZM117.458 30.5254C117.458 33.3735 115.634 34.8775 113.458 34.8775C111.122 34.8775 109.362 33.1495 109.362 30.4934C109.362 27.9014 111.154 26.1414 113.458 26.1414C115.634 26.1414 117.458 27.7094 117.458 30.5254Z" fill="#1E1E1E"/>
<path d="M125.999 38.4295H130.319V22.5893H125.999V38.4295ZM125.391 16.8293C125.391 18.3333 126.607 19.4853 128.143 19.4853C129.679 19.4853 130.927 18.3333 130.927 16.8293C130.927 15.2932 129.679 14.1412 128.143 14.1412C126.607 14.1412 125.391 15.2932 125.391 16.8293Z" fill="#1E1E1E"/>
<path d="M133.697 30.4934C133.633 35.0695 137.537 38.9095 142.177 38.8135C145.249 38.8135 147.681 37.3095 149.057 34.8775L146.049 32.5735C145.025 34.0135 143.873 34.8455 142.241 34.8455C139.809 34.8455 138.081 33.0215 138.081 30.4934C138.081 28.0294 139.809 26.1734 142.241 26.1734C143.905 26.1734 145.057 27.0374 146.049 28.4774L149.057 26.1414C147.681 23.7093 145.281 22.2373 142.177 22.2373C137.473 22.2373 133.697 25.8534 133.697 30.4934Z" fill="#1E1E1E"/>
<path d="M152.249 38.4295H156.569V22.5893H152.249V38.4295ZM151.641 16.8293C151.641 18.3333 152.857 19.4853 154.393 19.4853C155.929 19.4853 157.177 18.3333 157.177 16.8293C157.177 15.2932 155.929 14.1412 154.393 14.1412C152.857 14.1412 151.641 15.2932 151.641 16.8293Z" fill="#1E1E1E"/>
<path fill-rule="evenodd" clip-rule="evenodd" d="M25.5566 50.124C39.1837 50.124 50.2307 39.0771 50.2307 25.4499C50.2307 11.8228 39.1837 0.775879 25.5566 0.775879C11.9295 0.775879 0.882568 11.8228 0.882568 25.4499C0.882568 39.0771 11.9295 50.124 25.5566 50.124ZM28.1256 22.3133V14.4434C28.1256 13.3078 27.205 12.3872 26.0694 12.3872H24.572C23.4364 12.3872 22.5158 13.3078 22.5158 14.4434V20.6345C22.5158 21.1393 22.7015 21.6264 23.0375 22.0031L24.5349 23.682C25.7923 25.0917 28.1256 24.2023 28.1256 22.3133ZM18.9825 21.1L18.8473 36.4746C18.8374 37.6031 17.9197 38.5127 16.7912 38.5127H15.2758C14.1402 38.5127 13.2196 37.5921 13.2196 36.4565V19.2827C13.2196 17.4079 15.5235 16.5112 16.7909 17.8927L18.4416 19.6919C18.7938 20.0758 18.9871 20.5791 18.9825 21.1ZM35.8375 38.5127H34.3401C33.2045 38.5127 32.2839 37.5921 32.2839 36.4565V20.9271C32.2839 20.4131 32.4764 19.9178 32.8234 19.5387L34.3208 17.9029C35.5875 16.5192 37.8937 17.4153 37.8937 19.2913V36.4565C37.8937 37.5921 36.9731 38.5127 35.8375 38.5127ZM28.4461 36.4565V32.9922C28.4461 32.4963 28.2669 32.0171 27.9415 31.6429L26.4441 29.921C25.1962 28.4861 22.8363 29.3686 22.8363 31.2703V36.4565C22.8363 37.5921 23.7569 38.5127 24.8925 38.5127H26.3899C27.5255 38.5127 28.4461 37.5921 28.4461 36.4565Z" fill="#1E1E1E"/>
</svg>
