<svg width="21" height="21" viewBox="0 0 21 21" fill="none" xmlns="http://www.w3.org/2000/svg">
<path fill-rule="evenodd" clip-rule="evenodd" d="M10.7389 20.907C16.2974 20.907 20.8034 16.4009 20.8034 10.8424C20.8034 5.28389 16.2974 0.777832 10.7389 0.777832C5.18037 0.777832 0.674316 5.28389 0.674316 10.8424C0.674316 16.4009 5.18037 20.907 10.7389 20.907ZM11.7867 9.56297V6.35281C11.7867 5.8896 11.4112 5.5141 10.948 5.5141H10.3372C9.87402 5.5141 9.49851 5.8896 9.49851 6.35281V8.87816C9.49851 9.08407 9.57425 9.28278 9.71131 9.43644L10.3221 10.1212C10.835 10.6963 11.7867 10.3335 11.7867 9.56297ZM8.05729 9.06807L8.00213 15.3394C7.99809 15.7997 7.62378 16.1707 7.16345 16.1707H6.54531C6.0821 16.1707 5.7066 15.7952 5.7066 15.332L5.7066 8.32678C5.7066 7.56203 6.64635 7.19627 7.16334 7.75979L7.83664 8.4937C7.9803 8.65029 8.05916 8.85557 8.05729 9.06807ZM14.9324 16.1707H14.3216C13.8584 16.1707 13.4829 15.7952 13.4829 15.332V8.99752C13.4829 8.78788 13.5614 8.58584 13.703 8.43121L14.3138 7.76396C14.8305 7.19954 15.7712 7.56508 15.7712 8.33027V15.332C15.7712 15.7952 15.3957 16.1707 14.9324 16.1707ZM11.9175 15.332V13.9189C11.9175 13.7166 11.8444 13.5212 11.7117 13.3685L11.1009 12.6662C10.5918 12.0808 9.62927 12.4408 9.62927 13.2165V15.332C9.62927 15.7952 10.0048 16.1707 10.468 16.1707H11.0788C11.542 16.1707 11.9175 15.7952 11.9175 15.332Z" fill="black"/>
</svg>
